# xmcd
#
# Track frame offsets: 
#        183
#        11670
#        31995
#        49440
#        65330
#        84118
#        106060
#        118368
#        131915
#        146785
#        168603
#
# Disc length: 2413 seconds
#
# Revision: 3
# Processed by: cddbd v1.5.2PL0 Copyright (c) Steve Scherf et al.
# Submitted via: ExactAudioCopy v0.99pb5
#
DISCID=9c096b0b
DTITLE=The Desert Rose Band - Pages Of Life
DYEAR=1990
DGENRE=Country
TTITLE0=Story Of Love
TTITLE1=Start All Over Again
TTITLE2=Missing You
TTITLE3=Just A Memory
TTITLE4=God's Plan
TTITLE5=Darkness On The Playground
TTITLE6=Our Baby' s Gone
TTITLE7=Time Passes Me By
TTITLE8=Everybody's Hero
TTITLE9=In Another Lifetime
TTITLE10=Desert Rose
EXTD=YEAR: 1990
EXTT0=
EXTT1=
EXTT2=
EXTT3=
EXTT4=
EXTT5=
EXTT6=
EXTT7=
EXTT8=
EXTT9=
EXTT10=
PLAYORDER=
